<?xml version="1.0" encoding="utf-8"?>
<svg xmlns="http://www.w3.org/2000/svg" xmlns:xlink="http://www.w3.org/1999/xlink" version= "1.1" width="720px" height="1518px" viewBox="0 0 720 1518">
<g id="layer1">
<g style="fill:rgb(100,255,218); fill-opacity:1.0; stroke-linejoin: miter">
<path d="M292.69907,862.5822L339.57635,793.07135L386.45367,723.5605L470.02112,724.8659Q406.22607,818.3179,342.43103,911.7698L292.69907,862.5822"/>
</g>
<g style="fill:rgb(100,255,218); fill-opacity:1.0; stroke-linejoin: miter">
<path d="M342.49533,911.8101L416.52383,911.6694L490.55234,911.5286Q468.13208,888.3692,445.71185,865.2098Q409.93436,865.3227,374.15686,865.4356L342.49533,911.8101"/>
</g>
<g style="fill:rgb(100,255,218); fill-opacity:1.0; stroke-linejoin: miter">
<path d="M279.69348,669.4111L301.5118,692.7262L323.33014,716.0414Q396.41315,715.73206,469.49615,715.42267Q447.48975,692.1202,425.48337,668.8176L279.69348,669.4111"/>
</g>
<g style="fill:rgb(155,164,181); fill-opacity:1.0; stroke-linejoin: miter">
<path d="M509.58362,554.5597L509.58368,554.56006L509.5837,554.5605L509.58362,554.5597"/>
</g>
<g style="fill:rgb(100,255,218); fill-opacity:1.0; stroke-linejoin: miter">
<path d="M374.9129,740.0512L374.9129,740.0514L374.91293,740.0515L374.9129,740.0512"/>
</g>
</g>
</svg>